<svg width="24" height="24" viewBox="0 0 24 24" fill="none" xmlns="http://www.w3.org/2000/svg">
<rect width="24" height="24" rx="12" fill="#E1E1E1"/>
<path d="M16.875 11.0625H12.5625V10.3125H12.75C12.8731 10.3125 12.995 10.2883 13.1088 10.2411C13.2225 10.194 13.3259 10.125 13.4129 10.0379C13.5 9.95086 13.569 9.84751 13.6161 9.73377C13.6633 9.62002 13.6875 9.49811 13.6875 9.375V7.875C13.6875 7.75189 13.6633 7.62998 13.6161 7.51623C13.569 7.40249 13.5 7.29914 13.4129 7.21209C13.3259 7.12503 13.2225 7.05598 13.1088 7.00886C12.995 6.96175 12.8731 6.9375 12.75 6.9375H11.25C11.0014 6.9375 10.7629 7.03627 10.5871 7.21209C10.4113 7.3879 10.3125 7.62636 10.3125 7.875V9.375C10.3125 9.49811 10.3367 9.62002 10.3839 9.73377C10.431 9.84751 10.5 9.95086 10.5871 10.0379C10.7629 10.2137 11.0014 10.3125 11.25 10.3125H11.4375V11.0625H7.125C6.97582 11.0625 6.83274 11.1218 6.72725 11.2273C6.62176 11.3327 6.5625 11.4758 6.5625 11.625C6.5625 11.7742 6.62176 11.9173 6.72725 12.0227C6.83274 12.1282 6.97582 12.1875 7.125 12.1875H8.4375V13.3125H8.25C8.00136 13.3125 7.7629 13.4113 7.58709 13.5871C7.41127 13.7629 7.3125 14.0014 7.3125 14.25V15.75C7.3125 15.9986 7.41127 16.2371 7.58709 16.4129C7.7629 16.5887 8.00136 16.6875 8.25 16.6875H9.75C9.99864 16.6875 10.2371 16.5887 10.4129 16.4129C10.5887 16.2371 10.6875 15.9986 10.6875 15.75V14.25C10.6875 14.0014 10.5887 13.7629 10.4129 13.5871C10.2371 13.4113 9.99864 13.3125 9.75 13.3125H9.5625V12.1875H14.4375V13.3125H14.25C14.0014 13.3125 13.7629 13.4113 13.5871 13.5871C13.4113 13.7629 13.3125 14.0014 13.3125 14.25V15.75C13.3125 15.9986 13.4113 16.2371 13.5871 16.4129C13.7629 16.5887 14.0014 16.6875 14.25 16.6875H15.75C15.9986 16.6875 16.2371 16.5887 16.4129 16.4129C16.5887 16.2371 16.6875 15.9986 16.6875 15.75V14.25C16.6875 14.0014 16.5887 13.7629 16.4129 13.5871C16.2371 13.4113 15.9986 13.3125 15.75 13.3125H15.5625V12.1875H16.875C17.0242 12.1875 17.1673 12.1282 17.2727 12.0227C17.3782 11.9173 17.4375 11.7742 17.4375 11.625C17.4375 11.4758 17.3782 11.3327 17.2727 11.2273C17.1673 11.1218 17.0242 11.0625 16.875 11.0625ZM11.4375 8.0625H12.5625V9.1875H11.4375V8.0625ZM9.5625 15.5625H8.4375V14.4375H9.5625V15.5625ZM15.5625 15.5625H14.4375V14.4375H15.5625V15.5625Z" fill="#202020"/>
</svg>
